<svg width="93" height="33" viewBox="0 0 93 33" fill="none" xmlns="http://www.w3.org/2000/svg">
<path d="M13.2751 7.93726H2.93758C3.39159 9.30569 5.73717 12.5658 8.05045 12.5658C10.3637 12.5658 12.5503 9.58895 13.2751 7.93726Z" fill="#7AA1B7"/>
<path d="M9.69872 16.4465C9.69872 14.0175 15.4027 11.6111 15.4027 7.03407C15.4027 2.52055 11.6426 0.708348 8.11563 0.658936C4.58863 0.708355 0.828583 2.52056 0.828583 7.03407C0.828583 11.6111 6.53256 14.0175 6.53256 16.4465C6.53256 18.8755 0.828583 21.282 0.828583 25.859C0.828583 30.3725 4.58864 32.1847 8.11564 32.2341C11.6426 32.1847 15.4027 30.3725 15.4027 25.859C15.4027 21.282 9.69872 18.8755 9.69872 16.4465Z" stroke="#617F90" stroke-width="1.25"/>
<path d="M25.6895 24.9992H22.045L22.0685 22.6672H25.6895C26.7442 22.6672 27.627 22.4367 28.338 21.9758C29.0567 21.5148 29.5958 20.8547 29.9552 19.9953C30.3224 19.1359 30.506 18.1125 30.506 16.925V15.9992C30.506 15.0773 30.4005 14.2609 30.1895 13.55C29.9864 12.8391 29.6817 12.2414 29.2755 11.757C28.877 11.2726 28.3849 10.9055 27.7989 10.6555C27.2208 10.4055 26.5528 10.2805 25.795 10.2805H21.9747V7.93671H25.795C26.9278 7.93671 27.963 8.12811 28.9005 8.51093C29.838 8.88593 30.6466 9.42889 31.3263 10.1398C32.0138 10.8508 32.5411 11.7023 32.9083 12.6945C33.2755 13.6867 33.4591 14.7961 33.4591 16.0226V16.925C33.4591 18.1516 33.2755 19.2609 32.9083 20.2531C32.5411 21.2453 32.0138 22.0969 31.3263 22.8078C30.6388 23.5109 29.8185 24.0539 28.8653 24.4367C27.92 24.8117 26.8614 24.9992 25.6895 24.9992ZM23.6739 7.93671V24.9992H20.7325V7.93671H23.6739Z" fill="#FFE0CF"/>
<path d="M42.7994 22.4562V16.4094C42.7994 15.9562 42.7174 15.5656 42.5533 15.2375C42.3892 14.9094 42.1392 14.6555 41.8033 14.4758C41.4752 14.2961 41.0611 14.2062 40.5611 14.2062C40.1002 14.2062 39.7017 14.2844 39.3658 14.4406C39.0299 14.5969 38.7681 14.8078 38.5806 15.0734C38.3931 15.3391 38.2994 15.6398 38.2994 15.9758H35.4869C35.4869 15.4758 35.608 14.9914 35.8502 14.5226C36.0924 14.0539 36.4439 13.6359 36.9049 13.2687C37.3658 12.9016 37.9166 12.6125 38.5572 12.4016C39.1978 12.1906 39.9166 12.0851 40.7135 12.0851C41.6666 12.0851 42.5103 12.2453 43.2447 12.5656C43.9869 12.8859 44.5689 13.3703 44.9908 14.0187C45.4205 14.6594 45.6353 15.4641 45.6353 16.4328V22.0695C45.6353 22.6476 45.6744 23.1672 45.7525 23.6281C45.8385 24.0812 45.9595 24.4758 46.1158 24.8117V24.9992H43.2213C43.0885 24.6945 42.983 24.3078 42.9049 23.8391C42.8345 23.3625 42.7994 22.9016 42.7994 22.4562ZM43.2095 17.2883L43.233 19.0344H41.2056C40.6822 19.0344 40.2213 19.0851 39.8228 19.1867C39.4244 19.2805 39.0924 19.4211 38.8267 19.6086C38.5611 19.7961 38.3619 20.0226 38.2291 20.2883C38.0963 20.5539 38.0299 20.8547 38.0299 21.1906C38.0299 21.5266 38.108 21.8351 38.2642 22.1164C38.4205 22.3898 38.647 22.6047 38.9439 22.7609C39.2486 22.9172 39.6158 22.9953 40.0455 22.9953C40.6236 22.9953 41.1275 22.8781 41.5572 22.6437C41.9947 22.4016 42.3385 22.1086 42.5885 21.7648C42.8385 21.4133 42.9713 21.0812 42.9869 20.7687L43.901 22.0226C43.8072 22.343 43.647 22.6867 43.4205 23.0539C43.1939 23.4211 42.897 23.7726 42.5299 24.1086C42.1705 24.4367 41.7369 24.7062 41.2291 24.9172C40.7291 25.1281 40.151 25.2336 39.4947 25.2336C38.6666 25.2336 37.9283 25.0695 37.2799 24.7414C36.6314 24.4055 36.1236 23.9562 35.7564 23.3937C35.3892 22.8234 35.2056 22.1789 35.2056 21.4601C35.2056 20.7883 35.3306 20.1945 35.5806 19.6789C35.8385 19.1555 36.2135 18.718 36.7056 18.3664C37.2056 18.0148 37.815 17.7492 38.5338 17.5695C39.2525 17.382 40.0728 17.2883 40.9947 17.2883H43.2095Z" fill="#FFE0CF"/>
<path d="M51.6006 23.6164L55.046 12.3195H58.0694L52.9835 26.9328C52.8663 27.2453 52.7139 27.5851 52.5264 27.9523C52.3389 28.3195 52.0928 28.6672 51.7881 28.9953C51.4913 29.3312 51.1202 29.6008 50.6749 29.8039C50.2295 30.0148 49.6905 30.1203 49.0577 30.1203C48.8077 30.1203 48.5655 30.0969 48.3311 30.05C48.1045 30.0109 47.8897 29.968 47.6866 29.9211L47.6749 27.7648C47.753 27.7726 47.8467 27.7805 47.9561 27.7883C48.0733 27.7961 48.167 27.8 48.2374 27.8C48.7061 27.8 49.0967 27.7414 49.4092 27.6242C49.7217 27.5148 49.9756 27.3351 50.171 27.0851C50.3741 26.8351 50.546 26.4992 50.6866 26.0773L51.6006 23.6164ZM49.6553 12.3195L52.667 21.8117L53.171 24.7883L51.2139 25.2922L46.6085 12.3195H49.6553Z" fill="#FFE0CF"/>
<path d="M70.3277 20.8039C70.3277 20.3351 70.2495 19.9172 70.0933 19.55C69.937 19.1828 69.6792 18.8547 69.3199 18.5656C68.9683 18.2687 68.4917 17.9953 67.8902 17.7453C67.2964 17.4875 66.5542 17.2336 65.6636 16.9836C64.812 16.7414 64.0425 16.4758 63.355 16.1867C62.6675 15.8976 62.0777 15.5656 61.5855 15.1906C61.1011 14.8156 60.73 14.3781 60.4722 13.8781C60.2144 13.3703 60.0855 12.7805 60.0855 12.1086C60.0855 11.4523 60.2261 10.8547 60.5074 10.3156C60.7886 9.77655 61.1831 9.31171 61.691 8.92108C62.2066 8.53046 62.812 8.22968 63.5074 8.01874C64.2105 7.8078 64.98 7.70233 65.816 7.70233C67.0113 7.70233 68.0425 7.92889 68.9097 8.38202C69.7847 8.83514 70.4605 9.44843 70.937 10.2219C71.4214 10.9875 71.6636 11.8469 71.6636 12.8H70.2222C70.2222 12.0578 70.0464 11.3976 69.6949 10.8195C69.3511 10.2336 68.8511 9.77655 68.1949 9.44843C67.5464 9.11249 66.7535 8.94452 65.816 8.94452C64.8785 8.94452 64.0894 9.08905 63.4488 9.37811C62.816 9.65936 62.3355 10.0383 62.0074 10.5148C61.687 10.9836 61.5269 11.507 61.5269 12.0851C61.5269 12.4914 61.605 12.8664 61.7613 13.2101C61.9175 13.5461 62.1714 13.8625 62.523 14.1594C62.8824 14.4484 63.355 14.7219 63.941 14.9797C64.5269 15.2297 65.2495 15.468 66.1089 15.6945C67.0152 15.9445 67.8199 16.2219 68.523 16.5266C69.2261 16.8312 69.8199 17.1828 70.3042 17.5812C70.7886 17.9719 71.1558 18.4289 71.4058 18.9523C71.6558 19.4758 71.7808 20.0851 71.7808 20.7805C71.7808 21.4758 71.6324 22.1008 71.3355 22.6555C71.0464 23.2023 70.6363 23.6672 70.105 24.05C69.5816 24.4328 68.9605 24.7258 68.2417 24.9289C67.5308 25.132 66.7535 25.2336 65.9097 25.2336C65.1519 25.2336 64.398 25.1359 63.648 24.9406C62.898 24.7453 62.2105 24.4445 61.5855 24.0383C60.9683 23.6242 60.4722 23.093 60.0972 22.4445C59.73 21.7961 59.5464 21.0226 59.5464 20.1242H60.9761C60.9761 20.843 61.1206 21.4484 61.4097 21.9406C61.6988 22.4328 62.0816 22.8312 62.5581 23.1359C63.0425 23.4406 63.5738 23.6633 64.1519 23.8039C64.7378 23.9367 65.3238 24.0031 65.9097 24.0031C66.8081 24.0031 67.5855 23.8703 68.2417 23.6047C68.9058 23.3391 69.4175 22.968 69.7769 22.4914C70.1441 22.007 70.3277 21.4445 70.3277 20.8039Z" fill="#FFE0CF"/>
<path d="M75.8885 12.3195V24.9992H74.4939V12.3195H75.8885ZM74.2478 8.65155C74.2478 8.38593 74.3299 8.16327 74.4939 7.98358C74.6658 7.79608 74.9002 7.70233 75.197 7.70233C75.4939 7.70233 75.7283 7.79608 75.9002 7.98358C76.0799 8.16327 76.1697 8.38593 76.1697 8.65155C76.1697 8.90936 76.0799 9.13202 75.9002 9.31952C75.7283 9.49921 75.4939 9.58905 75.197 9.58905C74.9002 9.58905 74.6658 9.49921 74.4939 9.31952C74.3299 9.13202 74.2478 8.90936 74.2478 8.65155Z" fill="#FFE0CF"/>
<path d="M81.8828 24.9992H80.4883V10.7492C80.4883 9.88202 80.6367 9.15155 80.9336 8.5578C81.2383 7.96405 81.668 7.51483 82.2227 7.21014C82.7852 6.90546 83.4531 6.75311 84.2266 6.75311C84.4688 6.75311 84.7188 6.76874 84.9766 6.79999C85.2344 6.82343 85.4844 6.87421 85.7266 6.95233L85.6211 8.13593C85.4258 8.08124 85.2266 8.04608 85.0235 8.03046C84.8281 8.00702 84.5977 7.9953 84.332 7.9953C83.8242 7.9953 83.3867 8.10468 83.0195 8.32343C82.6524 8.53436 82.3711 8.84296 82.1758 9.24921C81.9805 9.65546 81.8828 10.1555 81.8828 10.7492V24.9992ZM84.9063 12.3195V13.468H78.3906V12.3195H84.9063Z" fill="#FFE0CF"/>
<path d="M91.9788 12.3195V13.468H85.6272V12.3195H91.9788ZM87.9592 9.06171H89.3538V21.9172C89.3538 22.5031 89.4319 22.9445 89.5881 23.2414C89.7444 23.5383 89.9475 23.7375 90.1975 23.8391C90.4475 23.9406 90.717 23.9914 91.0061 23.9914C91.217 23.9914 91.4202 23.9797 91.6155 23.9562C91.8108 23.925 91.9866 23.8937 92.1428 23.8625L92.2014 25.0461C92.0295 25.1008 91.8069 25.1437 91.5334 25.175C91.26 25.2141 90.9866 25.2336 90.7131 25.2336C90.1741 25.2336 89.6975 25.1359 89.2834 24.9406C88.8694 24.7375 88.5452 24.3937 88.3108 23.9094C88.0764 23.4172 87.9592 22.7492 87.9592 21.9055V9.06171Z" fill="#FFE0CF"/>
</svg>
