<svg width="32" height="45" viewBox="0 0 32 45" fill="none" xmlns="http://www.w3.org/2000/svg">
<path d="M4.90567 3.70833C2.4299 3.70833 2.00001 2 2.00001 2H30C30 2 29.5701 3.70833 27.0943 3.70833M4.90567 3.70833C4.90567 11.7244 7.81133 15.2724 8.86794 16.5865C9.92454 17.9006 11.3774 18.5577 12.1698 19.0833C12.9623 19.609 13.4906 20.1346 13.6227 20.3974V24.6026C13.4906 24.8654 12.9623 25.391 12.1698 25.9167C11.3774 26.4423 9.92453 27.0994 8.86792 28.4135C7.81132 29.7276 4.90566 33.2756 4.90566 41.2917M4.90567 3.70833H27.0943M27.0943 3.70833C27.0943 11.7244 24.1887 15.2724 23.1321 16.5865C22.0755 17.9006 20.6227 18.5577 19.8302 19.0833C19.0377 19.609 18.5094 20.1346 18.3774 20.3974V24.6026C18.5094 24.8654 19.0377 25.391 19.8302 25.9167C20.6226 26.4423 22.0755 27.0994 23.1321 28.4135C24.1887 29.7276 27.0943 33.2756 27.0943 41.2917M4.90566 41.2917C2.42988 41.2917 2 43 2 43H30C30 43 29.5701 41.2917 27.0943 41.2917M4.90566 41.2917H27.0943" stroke="#FFDCD1" stroke-width="2.25" stroke-linejoin="round"/>
</svg>
