<svg width="56" height="56" viewBox="0 0 56 56" fill="none" xmlns="http://www.w3.org/2000/svg">
<mask id="mask0_75_13" style="mask-type:alpha" maskUnits="userSpaceOnUse" x="0" y="0" width="56" height="56">
<path fill-rule="evenodd" clip-rule="evenodd" d="M26.681 55.7804H23.354C18.083 55.2623 13.1306 52.296 10.2804 47.3592L2.28041 33.5028C-2.41401 25.3719 0.371865 14.9748 8.50284 10.2804L22.3592 2.28041C30.4902 -2.41401 40.8873 0.371865 45.5817 8.50284L53.5817 22.3592C54.8308 24.5228 55.5503 26.8468 55.7804 29.1811V32.5081C55.2623 37.7791 52.2959 42.7315 47.3592 45.5817L33.5028 53.5817C31.3393 54.8308 29.0153 55.5503 26.681 55.7804Z" fill="#D9D9D9"/>
</mask>
<g mask="url(#mask0_75_13)">
<rect x="-2.2196" y="-6.2196" width="64" height="64" fill="url(#paint0_linear_75_13)"/>
<g filter="url(#filter0_d_75_13)">
<path d="M38 15.1442C38 4.42406 28.9702 0.119843 20.5 0.00247381C12.0298 0.119843 3 4.42406 3 15.1442C3 26.0152 17.2857 31.7308 17.2857 37.5C17.2857 43.2692 3 48.9848 3 59.8558C3 70.5759 12.0298 74.8802 20.5 74.9975C28.9702 74.8802 38 70.5759 38 59.8558C38 48.9848 23.7143 43.2692 23.7143 37.5C23.7143 31.7308 38 26.0152 38 15.1442Z" fill="url(#paint1_linear_75_13)"/>
</g>
</g>
<defs>
<filter id="filter0_d_75_13" x="1" y="-4" width="55" height="95" filterUnits="userSpaceOnUse" color-interpolation-filters="sRGB">
<feFlood flood-opacity="0" result="BackgroundImageFix"/>
<feColorMatrix in="SourceAlpha" type="matrix" values="0 0 0 0 0 0 0 0 0 0 0 0 0 0 0 0 0 0 127 0" result="hardAlpha"/>
<feOffset dx="8" dy="6"/>
<feGaussianBlur stdDeviation="5"/>
<feComposite in2="hardAlpha" operator="out"/>
<feColorMatrix type="matrix" values="0 0 0 0 0.149233 0 0 0 0 0.0128333 0 0 0 0 0.183333 0 0 0 0.45 0"/>
<feBlend mode="normal" in2="BackgroundImageFix" result="effect1_dropShadow_75_13"/>
<feBlend mode="normal" in="SourceGraphic" in2="effect1_dropShadow_75_13" result="shape"/>
</filter>
<linearGradient id="paint0_linear_75_13" x1="29.7804" y1="-6.2196" x2="29.7804" y2="57.7804" gradientUnits="userSpaceOnUse">
<stop stop-color="#D200CA"/>
<stop offset="1" stop-color="#A92D06"/>
</linearGradient>
<linearGradient id="paint1_linear_75_13" x1="20.5" y1="0" x2="20.5" y2="75" gradientUnits="userSpaceOnUse">
<stop stop-color="white"/>
<stop offset="1" stop-color="#B142A6"/>
</linearGradient>
</defs>
</svg>
