<svg width="17" height="33" viewBox="0 0 17 33" fill="none" xmlns="http://www.w3.org/2000/svg">
<path d="M13.5251 8.0278H3.18759C3.6416 9.39624 6.00453 12.9804 8.3178 12.9804C10.6311 12.9804 12.8003 9.67949 13.5251 8.0278Z" fill="#CAD9E2"/>
<path d="M9.94872 16.4465C9.94872 14.0175 15.6527 11.6111 15.6527 7.03407C15.6527 2.52055 11.8926 0.708348 8.36563 0.658936C4.83863 0.708355 1.07858 2.52056 1.07858 7.03407C1.07858 11.6111 6.78256 14.0175 6.78256 16.4465C6.78256 18.8755 1.07858 21.282 1.07858 25.859C1.07858 30.3725 4.83864 32.1847 8.36564 32.2341C11.8926 32.1847 15.6527 30.3725 15.6527 25.859C15.6527 21.282 9.94872 18.8755 9.94872 16.4465Z" stroke="#CAD9E2" stroke-width="1.25"/>
</svg>
