<svg width="96" height="33" viewBox="0 0 96 33" fill="none" xmlns="http://www.w3.org/2000/svg">
<path d="M13.2751 7.93726H2.93758C3.39159 9.30569 5.73717 12.5658 8.05045 12.5658C10.3637 12.5658 12.5503 9.58895 13.2751 7.93726Z" fill="#88D0D5"/>
<path d="M9.69872 16.4465C9.69872 14.0175 15.4027 11.6111 15.4027 7.03407C15.4027 2.52055 11.6426 0.708348 8.11563 0.658936C4.58863 0.708355 0.828583 2.52056 0.828583 7.03407C0.828583 11.6111 6.53256 14.0175 6.53256 16.4465C6.53256 18.8755 0.828583 21.282 0.828583 25.859C0.828583 30.3725 4.58864 32.1847 8.11564 32.2341C11.6426 32.1847 15.4027 30.3725 15.4027 25.859C15.4027 21.282 9.69872 18.8755 9.69872 16.4465Z" stroke="#ADB6B6" stroke-width="1.25"/>
<path d="M28.6895 24.9992H25.045L25.0685 22.6672H28.6895C29.7442 22.6672 30.627 22.4367 31.338 21.9758C32.0567 21.5148 32.5958 20.8547 32.9552 19.9953C33.3224 19.1359 33.506 18.1125 33.506 16.925V15.9992C33.506 15.0773 33.4005 14.2609 33.1895 13.55C32.9864 12.8391 32.6817 12.2414 32.2755 11.757C31.877 11.2726 31.3849 10.9055 30.7989 10.6555C30.2208 10.4055 29.5528 10.2805 28.795 10.2805H24.9747V7.93671H28.795C29.9278 7.93671 30.963 8.12811 31.9005 8.51093C32.838 8.88593 33.6466 9.42889 34.3263 10.1398C35.0138 10.8508 35.5411 11.7023 35.9083 12.6945C36.2755 13.6867 36.4591 14.7961 36.4591 16.0226V16.925C36.4591 18.1516 36.2755 19.2609 35.9083 20.2531C35.5411 21.2453 35.0138 22.0969 34.3263 22.8078C33.6388 23.5109 32.8185 24.0539 31.8653 24.4367C30.92 24.8117 29.8614 24.9992 28.6895 24.9992ZM26.6739 7.93671V24.9992H23.7325V7.93671H26.6739Z" fill="#F0FEFF"/>
<path d="M45.7994 22.4562V16.4094C45.7994 15.9562 45.7174 15.5656 45.5533 15.2375C45.3892 14.9094 45.1392 14.6555 44.8033 14.4758C44.4752 14.2961 44.0611 14.2062 43.5611 14.2062C43.1002 14.2062 42.7017 14.2844 42.3658 14.4406C42.0299 14.5969 41.7681 14.8078 41.5806 15.0734C41.3931 15.3391 41.2994 15.6398 41.2994 15.9758H38.4869C38.4869 15.4758 38.608 14.9914 38.8502 14.5226C39.0924 14.0539 39.4439 13.6359 39.9049 13.2687C40.3658 12.9016 40.9166 12.6125 41.5572 12.4016C42.1978 12.1906 42.9166 12.0851 43.7135 12.0851C44.6666 12.0851 45.5103 12.2453 46.2447 12.5656C46.9869 12.8859 47.5689 13.3703 47.9908 14.0187C48.4205 14.6594 48.6353 15.4641 48.6353 16.4328V22.0695C48.6353 22.6476 48.6744 23.1672 48.7525 23.6281C48.8385 24.0812 48.9595 24.4758 49.1158 24.8117V24.9992H46.2213C46.0885 24.6945 45.983 24.3078 45.9049 23.8391C45.8345 23.3625 45.7994 22.9016 45.7994 22.4562ZM46.2095 17.2883L46.233 19.0344H44.2056C43.6822 19.0344 43.2213 19.0851 42.8228 19.1867C42.4244 19.2805 42.0924 19.4211 41.8267 19.6086C41.5611 19.7961 41.3619 20.0226 41.2291 20.2883C41.0963 20.5539 41.0299 20.8547 41.0299 21.1906C41.0299 21.5266 41.108 21.8351 41.2642 22.1164C41.4205 22.3898 41.647 22.6047 41.9439 22.7609C42.2486 22.9172 42.6158 22.9953 43.0455 22.9953C43.6236 22.9953 44.1275 22.8781 44.5572 22.6437C44.9947 22.4016 45.3385 22.1086 45.5885 21.7648C45.8385 21.4133 45.9713 21.0812 45.9869 20.7687L46.901 22.0226C46.8072 22.343 46.647 22.6867 46.4205 23.0539C46.1939 23.4211 45.897 23.7726 45.5299 24.1086C45.1705 24.4367 44.7369 24.7062 44.2291 24.9172C43.7291 25.1281 43.151 25.2336 42.4947 25.2336C41.6666 25.2336 40.9283 25.0695 40.2799 24.7414C39.6314 24.4055 39.1236 23.9562 38.7564 23.3937C38.3892 22.8234 38.2056 22.1789 38.2056 21.4601C38.2056 20.7883 38.3306 20.1945 38.5806 19.6789C38.8385 19.1555 39.2135 18.718 39.7056 18.3664C40.2056 18.0148 40.815 17.7492 41.5338 17.5695C42.2525 17.382 43.0728 17.2883 43.9947 17.2883H46.2095Z" fill="#F0FEFF"/>
<path d="M54.6006 23.6164L58.046 12.3195H61.0694L55.9835 26.9328C55.8663 27.2453 55.7139 27.5851 55.5264 27.9523C55.3389 28.3195 55.0928 28.6672 54.7881 28.9953C54.4913 29.3312 54.1202 29.6008 53.6749 29.8039C53.2295 30.0148 52.6905 30.1203 52.0577 30.1203C51.8077 30.1203 51.5655 30.0969 51.3311 30.05C51.1045 30.0109 50.8897 29.968 50.6866 29.9211L50.6749 27.7648C50.753 27.7726 50.8467 27.7805 50.9561 27.7883C51.0733 27.7961 51.167 27.8 51.2374 27.8C51.7061 27.8 52.0967 27.7414 52.4092 27.6242C52.7217 27.5148 52.9756 27.3351 53.171 27.0851C53.3741 26.8351 53.546 26.4992 53.6866 26.0773L54.6006 23.6164ZM52.6553 12.3195L55.667 21.8117L56.171 24.7883L54.2139 25.2922L49.6085 12.3195H52.6553Z" fill="#F0FEFF"/>
<path d="M73.3277 20.8039C73.3277 20.3351 73.2495 19.9172 73.0933 19.55C72.937 19.1828 72.6792 18.8547 72.3199 18.5656C71.9683 18.2687 71.4917 17.9953 70.8902 17.7453C70.2964 17.4875 69.5542 17.2336 68.6636 16.9836C67.812 16.7414 67.0425 16.4758 66.355 16.1867C65.6675 15.8976 65.0777 15.5656 64.5855 15.1906C64.1011 14.8156 63.73 14.3781 63.4722 13.8781C63.2144 13.3703 63.0855 12.7805 63.0855 12.1086C63.0855 11.4523 63.2261 10.8547 63.5074 10.3156C63.7886 9.77655 64.1831 9.31171 64.691 8.92108C65.2066 8.53046 65.812 8.22968 66.5074 8.01874C67.2105 7.8078 67.98 7.70233 68.816 7.70233C70.0113 7.70233 71.0425 7.92889 71.9097 8.38202C72.7847 8.83514 73.4605 9.44843 73.937 10.2219C74.4214 10.9875 74.6636 11.8469 74.6636 12.8H73.2222C73.2222 12.0578 73.0464 11.3976 72.6949 10.8195C72.3511 10.2336 71.8511 9.77655 71.1949 9.44843C70.5464 9.11249 69.7535 8.94452 68.816 8.94452C67.8785 8.94452 67.0894 9.08905 66.4488 9.37811C65.816 9.65936 65.3355 10.0383 65.0074 10.5148C64.687 10.9836 64.5269 11.507 64.5269 12.0851C64.5269 12.4914 64.605 12.8664 64.7613 13.2101C64.9175 13.5461 65.1714 13.8625 65.523 14.1594C65.8824 14.4484 66.355 14.7219 66.941 14.9797C67.5269 15.2297 68.2495 15.468 69.1089 15.6945C70.0152 15.9445 70.8199 16.2219 71.523 16.5266C72.2261 16.8312 72.8199 17.1828 73.3042 17.5812C73.7886 17.9719 74.1558 18.4289 74.4058 18.9523C74.6558 19.4758 74.7808 20.0851 74.7808 20.7805C74.7808 21.4758 74.6324 22.1008 74.3355 22.6555C74.0464 23.2023 73.6363 23.6672 73.105 24.05C72.5816 24.4328 71.9605 24.7258 71.2417 24.9289C70.5308 25.132 69.7535 25.2336 68.9097 25.2336C68.1519 25.2336 67.398 25.1359 66.648 24.9406C65.898 24.7453 65.2105 24.4445 64.5855 24.0383C63.9683 23.6242 63.4722 23.093 63.0972 22.4445C62.73 21.7961 62.5464 21.0226 62.5464 20.1242H63.9761C63.9761 20.843 64.1206 21.4484 64.4097 21.9406C64.6988 22.4328 65.0816 22.8312 65.5581 23.1359C66.0425 23.4406 66.5738 23.6633 67.1519 23.8039C67.7378 23.9367 68.3238 24.0031 68.9097 24.0031C69.8081 24.0031 70.5855 23.8703 71.2417 23.6047C71.9058 23.3391 72.4175 22.968 72.7769 22.4914C73.1441 22.007 73.3277 21.4445 73.3277 20.8039Z" fill="#F0FEFF"/>
<path d="M78.8885 12.3195V24.9992H77.4939V12.3195H78.8885ZM77.2478 8.65155C77.2478 8.38593 77.3299 8.16327 77.4939 7.98358C77.6658 7.79608 77.9002 7.70233 78.197 7.70233C78.4939 7.70233 78.7283 7.79608 78.9002 7.98358C79.0799 8.16327 79.1697 8.38593 79.1697 8.65155C79.1697 8.90936 79.0799 9.13202 78.9002 9.31952C78.7283 9.49921 78.4939 9.58905 78.197 9.58905C77.9002 9.58905 77.6658 9.49921 77.4939 9.31952C77.3299 9.13202 77.2478 8.90936 77.2478 8.65155Z" fill="#F0FEFF"/>
<path d="M84.8828 24.9992H83.4883V10.7492C83.4883 9.88202 83.6367 9.15155 83.9336 8.5578C84.2383 7.96405 84.668 7.51483 85.2227 7.21014C85.7852 6.90546 86.4531 6.75311 87.2266 6.75311C87.4688 6.75311 87.7188 6.76874 87.9766 6.79999C88.2344 6.82343 88.4844 6.87421 88.7266 6.95233L88.6211 8.13593C88.4258 8.08124 88.2266 8.04608 88.0235 8.03046C87.8281 8.00702 87.5977 7.9953 87.332 7.9953C86.8242 7.9953 86.3867 8.10468 86.0195 8.32343C85.6524 8.53436 85.3711 8.84296 85.1758 9.24921C84.9805 9.65546 84.8828 10.1555 84.8828 10.7492V24.9992ZM87.9063 12.3195V13.468H81.3906V12.3195H87.9063Z" fill="#F0FEFF"/>
<path d="M94.9788 12.3195V13.468H88.6272V12.3195H94.9788ZM90.9592 9.06171H92.3538V21.9172C92.3538 22.5031 92.4319 22.9445 92.5881 23.2414C92.7444 23.5383 92.9475 23.7375 93.1975 23.8391C93.4475 23.9406 93.717 23.9914 94.0061 23.9914C94.217 23.9914 94.4202 23.9797 94.6155 23.9562C94.8108 23.925 94.9866 23.8937 95.1428 23.8625L95.2014 25.0461C95.0295 25.1008 94.8069 25.1437 94.5334 25.175C94.26 25.2141 93.9866 25.2336 93.7131 25.2336C93.1741 25.2336 92.6975 25.1359 92.2834 24.9406C91.8694 24.7375 91.5452 24.3937 91.3108 23.9094C91.0764 23.4172 90.9592 22.7492 90.9592 21.9055V9.06171Z" fill="#F0FEFF"/>
</svg>
